
        <svg xmlns="http://www.w3.org/2000/svg" xmlns:xlink="http://www.w3.org/1999/xlink" version="1.1" width="3153.846153846154" height="1076.9741620462175" viewBox="0 0 3153.846153846154 1076.9741620462175">
			
			<g transform="scale(7.6923076923076925) translate(10, 10)">
				<defs id="SvgjsDefs1001"/><g id="SvgjsG1007" featureKey="v37d4h-0" transform="matrix(0.06667109404400552,0,0,0.06667109404400552,19.45996411281055,19.493299691623807)" fill="#fff"><path xmlns="http://www.w3.org/2000/svg" d="M1423.2,552.6L963.1,92.5C908.3,37.7,835.5,7.6,758.1,7.6c-77.4,0-150.2,30.1-204.9,84.9L93,552.6  C38.3,607.4,8.1,680.2,8.1,757.6C8.1,835,38.3,907.7,93,962.5l460.1,460.2c54.7,54.7,127.5,84.9,204.9,84.9  c77.4,0,150.2-30.2,204.9-84.9l460.2-460.2c54.7-54.7,84.9-127.5,84.9-204.9C1508.1,680.2,1477.9,607.3,1423.2,552.6z M1381.1,920.4  L921,1380.6c-43.5,43.5-101.4,67.5-162.8,67.5c-61.5,0-119.3-24-162.8-67.5l-354.2-354.2h304.6l101.4,175.7h222l111-192.2  l-111-192.2h-222L545.7,993.2H208l-72.8-72.8c-43.5-43.5-67.5-101.3-67.5-162.8s24-119.3,67.5-162.8l460.1-460.1  c43.5-43.5,101.3-67.4,162.8-67.4s119.3,23.9,162.8,67.4l360.8,360.8H970.5L869.1,319.7h-222l-111,192.2l111,192.2h222l101.4-175.7  h344.3l66.3,66.3c43.5,43.5,67.5,101.3,67.5,162.8C1448.6,819.1,1424.6,876.9,1381.1,920.4z M604.9,1009.8l76.6-132.7h153.2  l76.6,132.7l-76.6,132.7H681.5L604.9,1009.8z M911.3,511.9l-76.6,132.7H681.5l-76.6-132.7l76.6-132.7h153.2L911.3,511.9z   M974.3,610.6l-73.9,128H615.8l-73.9-128H372.2l-84.9,147l84.9,147h169.7l73.9-128h284.6l73.9,128H1144l84.8-147l-84.8-147H974.3z"/></g><g id="SvgjsG1008" featureKey="UxBHKT-0" transform="matrix(4.607445774667246,0,0,4.607445774667246,136.40619407533063,3.7136010483176456)" fill="#fff"><path d="M5.08 16.08 q0 0.7 0.24 1.17 t1.12 0.47 q0.4 0 0.76 -0.04 l0 2.52 q-0.72 0.08 -1.34 0.08 q-1.28 0 -2.07 -0.21 t-1.23 -0.81 t-0.44 -1.72 l0 -6.1 l-1.34 0 l0 -2.62 l1.34 0 l0 -2.94 l2.96 0 l0 2.94 l2.2 0 l0 2.62 l-2.2 0 l0 4.64 z M17.92 18.9 q-0.38 0.52 -1.31 0.93 t-2.03 0.41 q-1.7 0 -2.95 -0.76 t-1.91 -2.07 t-0.66 -2.91 t0.66 -2.91 t1.91 -2.07 t2.95 -0.76 q1.14 0 2.01 0.39 t1.33 0.99 l0 -1.14 l2.96 0 l0 11 l-2.96 0 l0 -1.1 z M17.22 12.25 q-0.82 -0.87 -2.2 -0.87 q-1.4 0 -2.21 0.87 t-0.81 2.25 q0 1.34 0.83 2.22 t2.19 0.88 q1.4 0 2.21 -0.83 t0.81 -2.27 q0 -1.38 -0.82 -2.25 z M26.64 7.37 q-0.48 0.47 -1.16 0.47 q-0.7 0 -1.19 -0.47 t-0.49 -1.15 q0 -0.66 0.49 -1.13 t1.19 -0.47 q0.68 0 1.16 0.47 t0.48 1.13 q0 0.68 -0.48 1.15 z M23.98 9.02 l3 0 l0 10.98 l-3 0 l0 -10.98 z M35.18 11.87 q-0.86 0.21 -1.58 0.99 t-0.72 2.28 l0 4.86 l-2.98 0 l0 -11 l2.98 0 l0 1.46 q0.74 -0.98 1.81 -1.33 t1.95 -0.33 l0 2.92 q-0.6 -0.06 -1.46 0.15 z M38.44 4.88 l3 0 l0 15.12 l-3 0 l0 -15.12 z M45.6 24.12 l1.9 -4.52 l-4.72 -10.56 l3.46 0 l2.78 7 l2.56 -7 l3.46 0 l-6.14 15.08 l-3.3 0 z"/></g>
			</g>
		</svg>
	